<svg xmlns="http://www.w3.org/2000/svg" width="152" height="22.847" viewBox="0 0 152 22.847">
  <g id="Group_41039" data-name="Group 41039" transform="translate(-607 -6934)">
    <g id="favourite-31" transform="translate(669 6930.559)">
      <path id="Path_475" data-name="Path 475" d="M25.98,12.125a.42.42,0,0,0-.34-.286l-7.782-1.13-3.48-7.052a.438.438,0,0,0-.755,0l-3.48,7.052-7.782,1.13a.421.421,0,0,0-.234.718l5.631,5.489L6.429,25.8a.421.421,0,0,0,.611.444L14,22.581l6.96,3.659a.421.421,0,0,0,.611-.444l-1.329-7.75,5.631-5.489A.422.422,0,0,0,25.98,12.125Z" transform="translate(0 0)" fill="#fdc880"/>
    </g>
    <g id="favourite-31-2" data-name="favourite-31" transform="translate(701 6930.559)">
      <path id="Path_475-2" data-name="Path 475" d="M25.98,12.125a.42.42,0,0,0-.34-.286l-7.782-1.13-3.48-7.052a.438.438,0,0,0-.755,0l-3.48,7.052-7.782,1.13a.421.421,0,0,0-.234.718l5.631,5.489L6.429,25.8a.421.421,0,0,0,.611.444L14,22.581l6.96,3.659a.421.421,0,0,0,.611-.444l-1.329-7.75,5.631-5.489A.422.422,0,0,0,25.98,12.125Z" transform="translate(0 0)" fill="#fdc880"/>
    </g>
    <g id="favourite-31-3" data-name="favourite-31" transform="translate(733 6930.559)">
      <path id="Path_475-3" data-name="Path 475" d="M25.98,12.125a.42.42,0,0,0-.34-.286l-7.782-1.13-3.48-7.052a.438.438,0,0,0-.755,0l-3.48,7.052-7.782,1.13a.421.421,0,0,0-.234.718l5.631,5.489L6.429,25.8a.421.421,0,0,0,.611.444L14,22.581l6.96,3.659a.421.421,0,0,0,.611-.444l-1.329-7.75,5.631-5.489A.422.422,0,0,0,25.98,12.125Z" transform="translate(0 0)" fill="#fdc880"/>
    </g>
    <g id="favourite-31-4" data-name="favourite-31" transform="translate(637 6930.559)">
      <path id="Path_475-4" data-name="Path 475" d="M25.98,12.125a.42.42,0,0,0-.34-.286l-7.782-1.13-3.48-7.052a.438.438,0,0,0-.755,0l-3.48,7.052-7.782,1.13a.421.421,0,0,0-.234.718l5.631,5.489L6.429,25.8a.421.421,0,0,0,.611.444L14,22.581l6.96,3.659a.421.421,0,0,0,.611-.444l-1.329-7.75,5.631-5.489A.422.422,0,0,0,25.98,12.125Z" transform="translate(0 0)" fill="#fdc880"/>
    </g>
    <g id="favourite-31-5" data-name="favourite-31" transform="translate(605 6930.559)">
      <path id="Path_475-5" data-name="Path 475" d="M25.98,12.125a.42.42,0,0,0-.34-.286l-7.782-1.13-3.48-7.052a.438.438,0,0,0-.755,0l-3.48,7.052-7.782,1.13a.421.421,0,0,0-.234.718l5.631,5.489L6.429,25.8a.421.421,0,0,0,.611.444L14,22.581l6.96,3.659a.421.421,0,0,0,.611-.444l-1.329-7.75,5.631-5.489A.422.422,0,0,0,25.98,12.125Z" transform="translate(0 0)" fill="#fdc880"/>
    </g>
  </g>
</svg>
