<svg xmlns="http://www.w3.org/2000/svg" width="48" height="48" viewBox="0 0 48 48">
  <g transform="translate(-905 -1122)">
    <circle cx="24" cy="24" r="24" transform="translate(905 1122)" fill="#0d0614" opacity="0.15"/>
    <g transform="translate(915 1132) scale(1.2)">
      <path fill-rule="evenodd" clip-rule="evenodd" d="M11.7874 3.03525C11.547 3.39205 11.2727 3.95013 10.861 4.79379L8.60836 9.40976C8.40969 9.81692 8.23706 10.1707 8.07192 10.4395C7.90282 10.7147 7.67982 11.0082 7.33245 11.183C7.01901 11.3408 6.66586 11.3987 6.31634 11.3435C5.92305 11.2813 5.62461 11.0579 5.39095 10.8419C5.16444 10.6325 4.9109 10.3438 4.62331 10.0164L4.59843 9.98804C3.9896 9.29494 3.57063 8.81934 3.24613 8.51599C3.08554 8.36587 2.97998 8.28889 2.9151 8.25262C2.9148 8.25246 2.91451 8.25229 2.91421 8.25213C2.88044 8.26445 2.84123 8.28885 2.80252 8.33352C2.80247 8.33349 2.8026 8.33347 2.80252 8.33352C2.8051 8.33487 2.74659 8.45377 2.75021 8.91937C2.754 9.40668 2.81715 10.0849 2.90854 11.056L3.13774 13.4913C3.32823 15.5153 3.46628 16.9699 3.69773 18.0729C3.92652 19.1632 4.22785 19.8071 4.67644 20.266C5.114 20.7136 5.67605 20.9697 6.61279 21.1067C7.5801 21.2481 8.84501 21.25 10.6401 21.25H13.36C15.1551 21.25 16.42 21.2481 17.3873 21.1067C18.324 20.9697 18.8861 20.7136 19.3236 20.266C19.7722 19.8071 20.0735 19.1632 20.3023 18.0729C20.5338 16.9699 20.6718 15.5153 20.8623 13.4913L21.0915 11.056C21.1829 10.0849 21.2461 9.40668 21.2499 8.91937C21.2535 8.45377 21.1948 8.33484 21.1974 8.33349C21.1978 8.33328 21.1996 8.33582 21.2033 8.34028C21.1627 8.29129 21.1213 8.26506 21.0859 8.25213C21.0856 8.25229 21.0853 8.25246 21.085 8.25262C21.0201 8.28889 20.9145 8.36587 20.7539 8.51599C20.4294 8.81934 20.0105 9.29494 19.4016 9.98804L19.3768 10.0164C19.0892 10.3438 18.8356 10.6325 18.6091 10.8419C18.3755 11.0579 18.077 11.2813 17.6837 11.3435C17.3342 11.3987 16.9811 11.3408 16.6676 11.183C16.3203 11.0082 16.0972 10.7147 15.9281 10.4395C15.763 10.1707 15.5904 9.81688 15.3917 9.40969L13.1391 4.79378C12.7274 3.95013 12.453 3.39205 12.2127 3.03525C12.1109 2.88414 12.0409 2.80859 12 2.7722C11.9592 2.80859 11.8892 2.88414 11.7874 3.03525Z" fill="#ffffff"/>
    </g>
  </g>
</svg>
