<?xml version="1.0" encoding="utf-8"?>
<svg version="1.1" xmlns="http://www.w3.org/2000/svg" width="1189" height="579">
  <path d="M 663.348 77.942 C 673.065 85.23 676.811 89.599 681.348 100.942 C 686.135 141.626 670.754 179.323 647.348 211.942 C 646.802 212.708 646.256 213.474 645.694 214.264 C 639.659 222.701 633.646 231.093 626.508 238.641 C 624.67 240.599 622.919 242.594 621.169 244.629 C 617.033 249.374 612.621 253.816 608.161 258.254 C 607.367 259.052 606.574 259.849 605.756 260.67 C 604.989 261.437 604.221 262.203 603.43 262.993 C 602.397 264.024 602.397 264.024 601.344 265.076 C 599.435 266.861 597.469 268.419 595.348 269.942 C 595.858 277.926 596.86 285.621 598.536 293.442 C 598.865 294.99 598.865 294.99 599.2 296.568 C 604.931 322.773 606.185 346.207 629.003 362.18 C 639.38 366.931 649.536 375.173 663.903 371.691 C 688.428 363.142 664.336 373.127 681.977 363.468 C 664.744 359.549 661.769 355.941 651.306 346.788 C 639.016 334.105 636.598 326.402 634.679 311.227 C 630.617 279.109 644.337 259.068 648.386 250.453 C 655.115 237.931 664.316 230.146 687.53 226.106 C 712.274 226.106 725.313 227.885 738.327 237.8 C 748.381 246.937 747.119 244.079 751.723 262.356 C 748.858 291.414 744.213 302.904 727.394 352.455 C 742.509 362.342 779.153 325.232 784.757 321.204 C 786.077 311.304 787.215 242.732 788.575 232.532 C 792.575 221.532 792.575 221.532 798.575 215.532 C 801.575 214.532 801.575 214.532 809.575 214.532 C 815.575 217.532 815.575 217.532 818.575 223.532 C 821.298 234.425 819.368 246.812 818.279 257.891 C 818.036 260.363 817.804 262.836 817.573 265.31 C 816.917 272.331 816.244 279.351 815.566 286.371 C 815.069 291.529 814.582 296.688 814.106 301.848 C 814.03 302.676 813.954 303.504 813.875 304.357 C 810.801 334.205 810.801 334.205 821.575 361.532 C 825.954 365.345 825.954 365.345 834.575 365.532 C 843.723 362.266 843.723 362.266 848.048 359.231 C 849.578 358.227 851.108 357.223 852.638 356.219 C 853.39 355.72 854.142 355.22 854.917 354.706 C 862.01 350.069 866.853 347.532 875.575 347.532 C 882.575 353.532 882.575 353.532 884.575 361.532 C 877.617 378.927 865.565 386.062 849.575 393.532 C 833.576 397.895 821.143 398.37 805.575 392.532 C 792.017 381.686 795.666 384.838 791.647 379.984 C 790.979 379.177 789.411 375.705 789.162 374.666 C 787.158 365.763 789.427 375.296 787.261 365.29 C 787.061 364.364 787.622 360.135 787.622 359.159 C 787.683 350.838 786.919 359.23 788.16 351.005 C 789.224 341.201 765.843 377.232 733.948 378.095 C 725.761 378.593 714.771 373.776 712.092 374.544 C 708.986 375.435 716.589 373.566 686.348 392.942 C 666.109 402.019 647.291 400.487 626.348 393.942 C 594.74 375.504 580.333 346.358 571.114 311.974 C 554.627 246.69 556.502 168.665 590.348 108.942 C 599.751 93.252 609.608 84.312 626.348 75.942 C 639.94 73.677 650.068 74.32 663.348 77.942 Z M 629.348 108.942 C 599.027 136.231 594.71 186.661 592.601 225.764 C 592.514 227.49 592.43 229.216 592.348 230.942 C 597.273 228.48 599.753 225.076 603.348 220.942 C 604.171 220.009 604.993 219.075 605.84 218.114 C 629.44 191.048 654.348 153.957 654.348 116.942 C 651.717 110.889 651.717 110.889 647.348 106.942 C 638.909 105.34 638.909 105.34 629.348 108.942 Z M 685.726 253.746 C 661.716 259.111 662.844 274.059 656.325 291.508 C 652.35 314.444 662.703 329.927 672.053 336.039 C 685.466 341.982 701.662 345.751 704.722 346.091 C 715.107 321.434 726.52 278.549 723.03 268.27 C 710.926 251.555 702.277 251.265 685.726 253.746 Z" fill="#FFFFFF"/>
  <path d="M 1037.94 72.386 C 1047.43 83.226 1048.9 90.016 1050.94 104.386 C 1050.02 118.231 1048.14 131.14 1043.94 144.386 C 1043.74 145.048 1043.53 145.711 1043.33 146.393 C 1037.39 164.996 1027.37 182.622 1015.95 198.386 C 1015.19 199.439 1014.43 200.492 1013.65 201.577 C 1006.59 211.141 999.068 220.276 991.059 229.058 C 989.193 231.117 987.379 233.21 985.574 235.323 C 977.778 244.234 969.267 252.093 959.949 259.386 C 959.061 260.083 958.173 260.781 957.258 261.499 C 951 266.386 951 266.386 948.949 266.386 C 948.289 271.666 947.629 276.946 946.949 282.386 C 956.189 282.386 965.429 282.386 974.949 282.386 C 980.949 285.386 980.949 285.386 984.949 289.386 C 985.949 292.386 985.949 292.386 985.949 302.386 C 981.949 308.386 981.949 308.386 974.949 312.386 C 959.109 312.881 959.109 312.881 942.949 313.386 C 941.774 321.358 940.599 329.331 939.432 337.305 C 938.889 341.018 938.343 344.731 937.795 348.444 C 937.266 352.023 936.741 355.602 936.219 359.181 C 936.02 360.544 935.819 361.907 935.616 363.269 C 935.332 365.183 935.054 367.098 934.776 369.013 C 934.536 370.646 934.536 370.646 934.291 372.311 C 933.952 375.364 933.888 378.317 933.949 381.386 C 934.39 381.04 934.83 380.695 935.284 380.339 C 945.021 372.711 954.831 365.195 964.745 357.8 C 970.292 353.654 975.761 349.425 981.185 345.12 C 989.702 338.383 996.342 333.568 1006.95 330.386 C 1013.95 332.386 1013.95 332.386 1018.95 337.386 C 1019.95 339.386 1019.95 339.386 1019.95 348.386 C 1014.71 356.483 1009.65 362.833 1002.11 368.859 C 999.914 370.611 997.727 372.37 995.543 374.132 C 988.208 380.039 980.794 385.824 973.296 391.523 C 968.544 395.143 963.853 398.828 959.199 402.573 C 950.504 409.571 941.662 416.357 932.731 423.051 C 932.175 423.469 931.618 423.886 931.045 424.316 C 929.68 425.339 928.314 426.363 926.949 427.386 C 926.818 428.276 926.687 429.166 926.552 430.083 C 925.309 438.513 924.059 446.942 922.802 455.37 C 922.156 459.702 921.513 464.034 920.875 468.367 C 920.259 472.557 919.636 476.745 919.008 480.933 C 918.771 482.523 918.536 484.113 918.304 485.704 C 915.169 507.133 910.657 522.534 893.949 537.386 C 878.749 544.986 867.445 546.385 850.949 543.386 C 834.095 534.959 823.244 526.259 816.949 508.386 C 813.276 493.692 816.886 481.1 823.949 468.386 C 829.738 461.506 835.871 455.894 842.949 450.386 C 844.331 449.3 845.713 448.214 847.094 447.128 C 860.205 436.851 873.539 426.887 886.953 417.011 C 887.823 416.37 888.693 415.73 889.589 415.07 C 891.709 413.508 893.829 411.947 895.949 410.386 C 896.123 409.232 896.296 408.078 896.474 406.889 C 898.106 396.015 899.739 385.141 901.374 374.268 C 902.214 368.678 903.054 363.087 903.892 357.497 C 904.702 352.102 905.512 346.708 906.324 341.313 C 906.633 339.255 906.942 337.196 907.251 335.138 C 907.683 332.255 908.117 329.373 908.551 326.491 C 908.678 325.639 908.805 324.787 908.936 323.91 C 909.056 323.121 909.175 322.331 909.298 321.518 C 909.4 320.837 909.502 320.155 909.608 319.454 C 909.999 317.088 910.479 314.737 910.949 312.386 C 902.039 312.386 893.129 312.386 883.949 312.386 C 875.949 308.386 875.949 308.386 872.949 302.386 C 872.949 292.386 872.949 292.386 875.949 286.386 C 890.169 278.26 894.626 281.386 914.949 281.386 C 915.592 277.137 915.592 277.137 916.247 272.802 C 917.679 263.334 919.117 253.867 920.558 244.4 C 921.429 238.673 922.298 232.946 923.163 227.217 C 932.698 164.109 932.698 164.109 938.262 144.073 C 938.699 142.481 938.699 142.481 939.145 140.857 C 947.339 111.837 959.162 84.577 984.949 67.386 C 1004.45 60.885 1020.4 60.683 1037.94 72.386 Z M 989.949 102.386 C 969.914 127.885 964.736 160.457 959.637 191.698 C 959.508 192.484 959.379 193.269 959.245 194.078 C 957.707 203.507 956.483 212.839 955.949 222.386 C 984.65 199.301 1013.2 156.21 1018.95 119.386 C 1020.04 109.177 1020.04 109.177 1016.95 99.386 C 1007.8 90.233 999.004 95.918 989.949 102.386 Z M 858.949 478.386 C 857.99 479.656 857.032 480.927 856.074 482.198 C 855.541 482.906 855.007 483.614 854.457 484.343 C 850.758 489.355 850.846 490.213 849.949 497.386 C 852.146 506.609 852.146 506.609 858.949 511.386 C 862.529 512.755 862.529 512.755 868.949 512.386 C 877.566 508.947 877.566 508.947 881.949 500.386 C 884.354 491.073 886.334 481.787 887.699 472.261 C 887.827 471.385 887.954 470.51 888.085 469.608 C 888.742 464.818 889.08 460.219 888.949 455.386 C 881.287 455.386 865.011 473.339 858.949 478.386 Z" fill="#FFFFFF"/>
  <path d="M 817.055 162.631 C 823.055 167.295 823.055 167.295 827.055 174.291 C 827.055 185.95 827.055 185.95 823.055 194.112 C 818.055 197.61 818.055 197.61 811.055 198.776 C 802.055 195.278 802.055 195.278 798.055 189.448 C 797.055 187.116 797.055 187.116 797.055 174.291 C 802.011 162.734 806.204 162.631 817.055 162.631 Z" fill="#FFFFFF" style=""/>
  <path d="M 377.982 74 C 392.312 83.977 403.382 94.579 409.357 111.875 C 409.599 112.567 409.842 113.259 410.092 113.972 C 413.476 123.952 414.009 133.296 414.037 143.715 C 414.042 145.267 414.048 146.82 414.057 148.373 C 414.069 150.614 414.075 152.856 414.079 155.098 C 414.084 155.783 414.09 156.469 414.095 157.176 C 414.095 161.564 413.691 165.684 412.982 170 C 427.947 165.528 441.181 158.768 454.667 150.97 C 462.5 146.462 465.324 146 474.982 146 C 480.982 150 480.982 150 484.982 156 C 484.982 166 484.982 166 479.982 174 C 460.873 193.109 434.808 199.975 408.982 205 C 407.662 205 406.342 205 404.982 205 C 404.764 206.299 404.546 207.599 404.321 208.938 C 402.737 216.82 400.1 224.391 397.544 232 C 397.278 232.794 397.013 233.588 396.739 234.405 C 386.871 263.762 374.338 292.239 356.982 318 C 356.288 319.035 356.288 319.035 355.581 320.091 C 348.68 330.317 341.219 339.824 332.982 349 C 332.498 349.546 332.014 350.091 331.515 350.653 C 326.019 356.847 320.487 362.843 313.982 368 C 313.439 368.433 312.897 368.866 312.339 369.312 C 298.327 380.412 283.829 388.984 266.982 395 C 265.939 395.379 264.896 395.758 263.821 396.148 C 243.261 403.063 221.665 404.364 200.982 398 C 194.674 394.321 188.718 390.519 182.982 386 C 182.035 386.447 181.089 386.895 180.114 387.355 C 155.869 398.544 130.479 403.077 103.982 399 C 87.378 392.359 77.829 381.915 70.747 365.808 C 47.991 312.033 67.489 239.249 76.309 184.018 C 81.687 154.646 81.687 154.646 83.982 125 C 82.468 125.93 82.468 125.93 80.923 126.879 C 75.949 129.93 70.966 132.966 65.982 136 C 64.954 136.626 63.927 137.252 62.869 137.896 C 59.618 139.874 56.363 141.844 53.107 143.813 C 52.086 144.434 51.066 145.055 50.015 145.696 C 31.263 157 31.263 157 21.982 157 C 15.982 154 15.982 154 10.982 148 C 8.982 139 8.982 139 11.982 131 C 19.559 122.933 28.779 117.04 37.982 111 C 39.759 109.814 41.533 108.624 43.307 107.435 C 56.428 98.646 69.64 90.038 83.25 82.024 C 84.94 81.024 86.621 80.008 88.302 78.992 C 97.613 73.415 102.783 70.756 113.982 72 C 120.982 77 120.982 77 123.982 84 C 123.452 99.222 121.324 114.292 119.41 129.387 C 118.92 133.263 118.436 137.141 117.952 141.018 C 116.821 150.057 115.684 159.095 114.545 168.134 C 107.998 219.673 107.998 219.673 101.966 271.273 C 101.866 272.154 101.767 273.035 101.664 273.943 C 98.74 299.141 98.74 299.141 99.919 324.375 C 100.019 325.23 100.119 326.084 100.222 326.965 C 101.533 338.08 104.787 346.708 110.982 356 C 121.998 363.344 120.849 361 137.982 361 C 148.842 358.762 158.783 356.397 168.982 352 C 169.642 352 170.302 352 170.982 352 C 170.728 351.016 170.474 350.033 170.212 349.02 C 166.015 332.287 163.46 315.258 162.982 298 C 162.949 296.858 162.949 296.858 162.915 295.692 C 161.948 255.503 165.776 213.77 193.982 183 C 209.511 173.294 221.99 172.232 239.982 175 C 256.959 181.791 264.787 189.61 272.982 206 C 282.907 245.702 270.539 288.793 250.139 323.315 C 241.452 337.636 231.308 352.635 217.982 363 C 219.482 367 219.482 367 221.982 368 C 255.736 368 278.408 355.458 301.482 332.875 C 333.445 300.805 352.644 256.938 367.027 214.709 C 367.942 212.114 368.96 209.555 369.982 207 C 366.352 207 362.722 207 358.982 207 C 333.396 202.544 310.981 194.025 293.982 173 C 286.94 160.929 286.94 160.929 284.544 153.438 C 284.314 152.733 284.084 152.029 283.847 151.303 C 281.32 143.355 280.841 135.855 280.919 127.563 C 280.924 126.64 280.928 125.718 280.933 124.768 C 281.029 106.195 289.793 94.297 301.982 81 C 326.694 63.702 350.176 62.414 377.982 74 Z M 323.982 111 C 315.565 120.82 314.982 125.997 314.982 139 C 320.757 154.884 327.865 162.442 342.982 170 C 344.835 170.484 346.689 170.962 348.544 171.438 C 349.577 171.704 350.609 171.971 351.673 172.246 C 357.981 173.684 363.986 174.138 370.419 174.063 C 374.163 174.032 374.163 174.032 377.982 174 C 381.587 154.771 382.794 137.892 376.982 119 C 369.743 109.349 366.263 106.513 354.982 102 C 341.405 102 335.244 103.492 323.982 111 Z M 214.982 215 C 199.278 233.321 197.013 260.636 196.061 284.067 C 195.992 285.741 195.906 287.413 195.818 289.086 C 195.43 302.241 197.278 316.126 199.982 329 C 221.781 314.467 233.301 284.97 238.403 260.316 C 239.804 252.283 240.107 244.647 240.044 236.5 C 240.04 235.391 240.035 234.283 240.03 233.141 C 240.002 226.551 239.809 224.597 236.982 218 C 228.91 211.274 225.059 209.962 214.982 215 Z" fill="#FFFFFF"/>
  <path d="M 1074.63 184.297 C 1079.63 187.297 1079.63 187.297 1082.63 193.297 C 1083.63 201.297 1083.63 201.297 1083.11 205.202 C 1082.46 210.085 1081.83 214.968 1081.18 219.852 C 1080.9 221.946 1080.62 224.041 1080.36 226.135 C 1076.54 254.742 1076.54 254.742 1075.52 283.547 C 1075.53 284.901 1075.54 286.255 1075.54 287.609 C 1075.63 300.623 1077.77 311.559 1083.63 323.297 C 1088.44 327.618 1088.44 327.618 1094.63 329.297 C 1104.09 329.018 1104.09 329.018 1111.63 322.297 C 1127.07 298.051 1131.36 270.929 1136.02 243.019 C 1136.53 239.973 1137.06 236.933 1137.61 233.895 C 1139.67 222.426 1140.71 210.91 1141.63 199.297 C 1145.63 190.297 1145.63 190.297 1149.63 186.297 C 1152.63 185.297 1152.63 185.297 1162.63 185.297 C 1167.6 188.269 1170.76 190.66 1172.63 196.297 C 1173.6 213.648 1170.86 230.598 1168.39 247.715 C 1167.8 251.895 1167.21 256.077 1166.63 260.259 C 1165.53 268.147 1164.4 276.033 1163.29 283.918 C 1162.01 292.908 1160.74 301.901 1159.47 310.893 C 1156.87 329.364 1154.27 347.831 1151.63 366.297 C 1155.02 364.295 1158.18 362.215 1161.3 359.82 C 1162.16 359.154 1163.04 358.488 1163.93 357.802 C 1164.85 357.099 1165.76 356.396 1166.69 355.672 C 1168.61 354.213 1170.51 352.755 1172.41 351.297 C 1173.78 350.251 1173.78 350.251 1175.16 349.184 C 1178.04 346.991 1180.92 344.827 1183.83 342.672 C 1187.27 340.107 1190.66 337.501 1194.05 334.855 C 1194.84 334.238 1195.62 333.621 1196.43 332.985 C 1197.97 331.774 1199.52 330.56 1201.06 329.343 C 1209.37 322.814 1216.27 318.409 1226.63 315.297 C 1234.63 317.297 1234.63 317.297 1238.63 321.297 C 1239.63 324.297 1239.63 324.297 1239.63 332.297 C 1233.47 342.562 1227.67 348.632 1218.45 355.757 C 1213.63 359.485 1208.94 363.337 1204.27 367.234 C 1198.11 372.336 1191.86 377.222 1185.43 381.975 C 1180.66 385.51 1176 389.144 1171.35 392.836 C 1166.03 397.034 1160.61 401.096 1155.18 405.152 C 1154.27 405.842 1153.35 406.532 1152.39 407.243 C 1150.14 408.928 1147.88 410.613 1145.63 412.297 C 1145.52 413.174 1145.39 414.052 1145.28 414.956 C 1144.15 423.268 1143.02 431.58 1141.88 439.89 C 1141.3 444.161 1140.71 448.433 1140.13 452.705 C 1139.58 456.837 1139.02 460.967 1138.44 465.096 C 1138.22 466.664 1138.02 468.232 1137.81 469.8 C 1135.29 488.633 1131.06 502.385 1117.63 517.297 C 1102.26 527.085 1096 529.297 1077.63 529.297 C 1059.03 523.571 1048.76 516.166 1038.63 499.297 C 1033.25 481.334 1035.43 467.698 1043.63 451.297 C 1050.5 444.064 1057.61 437.739 1065.62 431.802 C 1067.93 430.078 1070.21 428.326 1072.5 426.57 C 1082.43 418.938 1092.46 411.451 1102.65 404.164 C 1110.09 399.563 1110.09 399.563 1115.63 393.297 C 1116.95 382.407 1118.28 371.517 1119.63 360.297 C 1119.96 359.307 1120.3 358.317 1120.63 357.297 C 1115.68 359.277 1115.68 359.277 1110.63 361.297 C 1093.71 364.268 1081.53 363.964 1065.63 355.297 C 1055.08 346.493 1049.21 335.432 1045.77 322.297 C 1045.59 321.668 1045.41 321.039 1045.24 320.391 C 1041.7 306.803 1041.26 292.935 1041.33 278.984 C 1041.33 278.16 1041.33 277.335 1041.33 276.485 C 1041.43 247.64 1042.1 208.634 1061.63 186.297 C 1065.63 184.297 1065.63 184.297 1074.63 184.297 Z M 1097.39 447.98 C 1095.68 449.26 1093.97 450.533 1092.27 451.805 C 1082.29 459.275 1074.78 465.728 1069.63 477.297 C 1069.83 487.099 1069.83 487.099 1074.63 493.297 C 1080.24 497.24 1080.24 497.24 1090.63 496.297 C 1100.86 489.48 1102.69 481.012 1105.11 469.985 C 1106.06 465.2 1106.74 460.381 1107.38 455.547 C 1107.52 454.607 1107.64 453.667 1107.78 452.699 C 1108.32 448.525 1108.69 444.512 1108.63 440.297 C 1105.25 440.297 1100.24 445.832 1097.39 447.98 Z" fill="#FFFFFF"/>
  <path d="M 520.756 232.959 C 532.813 251.045 531.614 263.385 527.756 283.959 C 516.221 307.029 502.103 322.919 477.932 331.03 C 465.63 335.035 452.528 336.514 439.756 333.959 C 440.381 351.549 440.381 351.549 448.756 365.959 C 463.516 372.519 473.792 371.644 489.756 367.959 C 502.05 362.528 513.42 356.172 524.756 348.959 C 527.756 347.959 527.756 347.959 535.756 347.959 C 542.756 353.959 542.756 353.959 543.756 355.959 C 543.756 365.959 543.756 365.959 537.756 374.959 C 515.001 393.164 487.817 402.912 458.756 403.959 C 438.811 401.11 429.385 396.745 416.756 380.959 C 403.116 347.781 405.738 311.425 419.268 278.519 C 429.317 255.273 442.65 237.855 464.756 224.959 C 484.389 218.774 503.565 219.206 520.756 232.959 Z M 465.756 262.959 C 456.326 275.533 450.239 288.959 445.756 303.959 C 455.983 307.368 465.044 304.873 474.756 301.959 C 486.924 295.199 495.516 288.061 500.756 274.959 C 502.521 266.358 501.891 260.317 498.756 251.959 C 486.417 242.705 474.814 254.807 465.756 262.959 Z" fill="#FFFFFF"/>
</svg>